<svg xmlns="http://www.w3.org/2000/svg" viewBox="0 0 17.63 17.63"><defs><style>.cls-1{fill:aqua;}</style></defs><title>icon-btn</title><g id="Capa_2" data-name="Capa 2"><g id="Capa_1-2" data-name="Capa 1"><path class="cls-1" d="M17.63,8.86c0,1.47,0,3,0,4.42a4.19,4.19,0,0,1-4.35,4.35q-4.47,0-8.94,0A4.21,4.21,0,0,1,0,13.31v-9A4.21,4.21,0,0,1,4.33,0h9a4.19,4.19,0,0,1,4.31,4.3C17.64,5.82,17.63,7.34,17.63,8.86Zm-6.3,5.58h2.48a1.16,1.16,0,1,0,0-2.31h-5a1.12,1.12,0,0,0-1.25,1.15,1.15,1.15,0,0,0,1.26,1.17Zm0-6.77H8.8a1.16,1.16,0,1,0,0,2.31h5.05a1.15,1.15,0,1,0,0-2.3Zm0-2.15h2.58a1.13,1.13,0,0,0,1.21-1.11,1.14,1.14,0,0,0-1.16-1.18c-.5,0-1,0-1.49,0-1.25,0-2.5,0-3.74,0a1.08,1.08,0,0,0-1.11,1.2A1.09,1.09,0,0,0,8.77,5.52ZM4.34,11.75a1.49,1.49,0,0,0-1.53,1.49A1.56,1.56,0,0,0,4.34,14.8a1.56,1.56,0,0,0,1.52-1.53A1.53,1.53,0,0,0,4.34,11.75Zm0-5.87A1.52,1.52,0,0,0,5.86,4.36a1.53,1.53,0,0,0-3.05,0A1.49,1.49,0,0,0,4.3,5.88Zm0,4.45a1.52,1.52,0,0,0,0-3,1.52,1.52,0,1,0,0,3Z"/></g></g></svg>