<svg xmlns="http://www.w3.org/2000/svg" viewBox="0 0 149.68 37.86"><defs><style>.cls-1{fill:#fff;}.cls-2{fill:aqua;}</style></defs><title>Recurso 2</title><g id="Capa_2" data-name="Capa 2"><g id="Capa_1-2" data-name="Capa 1"><path class="cls-1" d="M2.63,20.64C4,23.94,6.28,25.59,9.5,25.59c2.31,0,4-.79,4.63-1.92A5.3,5.3,0,0,0,15,20.76a4.28,4.28,0,0,0-1.37-3.41,19.65,19.65,0,0,0-4.75-2.67,20.55,20.55,0,0,1-5.46-3.26A6.1,6.1,0,0,1,1.69,6.79,6.3,6.3,0,0,1,3.81,1.92,7.66,7.66,0,0,1,9.18,0a7.83,7.83,0,0,1,7.38,4.36L13.93,5.69A5.06,5.06,0,0,0,9.14,2.83c-2.47,0-4.39,1.64-4.39,3.88A3.61,3.61,0,0,0,6.36,10c.66.43,1.18.78,1.61,1l2.35,1.06a18.72,18.72,0,0,1,5.93,3.65,6.58,6.58,0,0,1,1.8,5,7.3,7.3,0,0,1-2.27,5.54,8.7,8.7,0,0,1-6.32,2.15A9.5,9.5,0,0,1,0,21.86Z"/><path class="cls-1" d="M23.75,27.86V.51h3.06V27.86Z"/><path class="cls-1" d="M34.81,20.64c1.38,3.3,3.65,4.95,6.87,4.95,2.32,0,4-.79,4.63-1.92a5.32,5.32,0,0,0,.87-2.91,4.29,4.29,0,0,0-1.38-3.41,19.65,19.65,0,0,0-4.75-2.67,20.47,20.47,0,0,1-5.45-3.26,6.06,6.06,0,0,1-1.73-4.63A6.33,6.33,0,0,1,36,1.92,7.68,7.68,0,0,1,41.37,0a7.84,7.84,0,0,1,7.38,4.36L46.12,5.69a5.06,5.06,0,0,0-4.79-2.86c-2.48,0-4.4,1.64-4.4,3.88A3.63,3.63,0,0,0,38.54,10c.67.43,1.18.78,1.61,1l2.35,1.06a18.72,18.72,0,0,1,5.93,3.65,6.55,6.55,0,0,1,1.81,5A7.31,7.31,0,0,1,48,26.26a8.7,8.7,0,0,1-6.32,2.15,9.51,9.51,0,0,1-9.46-6.55Z"/><path class="cls-1" d="M54.83,27.86V.51h5.06l9.38,14,9.38-14h5.06V27.86H78V11.19l-8.75,13L60.48,11.19V27.86Z"/><path class="cls-1" d="M87,27.86,98.28.51h5.37L115,27.86h-6.44l-1.84-4.59H95.25l-1.84,4.59Zm10-9.41h8l-4-9.93Z"/><path class="cls-2" d="M114.17,27.86l9-14L114.65.51h6.75l5.53,8.71L132.42.51h6.71l-8.51,13.34,19.06,24H143L126.89,18.37l-6.12,9.49Z"/><polygon class="cls-1" points="143.5 2.33 140.21 2.33 132.81 13.5 138.26 20.34 141.55 20.34 136.09 13.5 143.5 2.33"/></g></g></svg>